<svg
  width="13"
  height="17"
  viewBox="0 0 13 17"
  fill="none"
  xmlns="http://www.w3.org/2000/svg"
>
<path
    d="M10.1202 2.97681H12.5016V5.35824H10.1202V2.97681ZM10.1202 6.54895H12.5016V8.93038H10.1202V6.54895ZM6.54807 2.97681H8.92949V5.35824H6.54807V2.97681ZM6.54807 6.54895H8.92949V8.93038H6.54807V6.54895Z"
  />
<path
    d="M5.06 14.2885C5.55321 14.2885 5.95303 13.8887 5.95303 13.3955C5.95303 12.9023 5.55321 12.5024 5.06 12.5024C4.56679 12.5024 4.16696 12.9023 4.16696 13.3955C4.16696 13.8887 4.56679 14.2885 5.06 14.2885Z"
  />
<path
    d="M8.93036 16.67H1.19071C0.875014 16.6697 0.572334 16.5441 0.3491 16.3209C0.125866 16.0977 0.000315228 15.795 0 15.4793V1.19071C0.000315228 0.875014 0.125866 0.572334 0.3491 0.3491C0.572334 0.125866 0.875014 0.000315228 1.19071 0H8.93036V1.19071H1.19071V15.4793H8.93036V10.7164H10.1211V15.4793C10.1208 15.795 9.99521 16.0977 9.77197 16.3209C9.54874 16.5441 9.24606 16.6697 8.93036 16.67Z"
  />
</svg>
