<svg width="16" height="16" viewBox="0 0 16 16" fill="none" xmlns="http://www.w3.org/2000/svg">
<path fill-rule="evenodd" clip-rule="evenodd" d="M8.35556 12H9.55556C12.624 12 15.1111 9.51289 15.1111 6.44444C15.1111 3.376 12.624 0.888889 9.55556 0.888889H6.44444C3.376 0.888889 0.888889 3.376 0.888889 6.44444C0.888889 10.0267 2.93156 12.1689 5.08 13.4604C6.15822 14.1084 7.24444 14.5271 8.06489 14.7836C8.16622 14.8151 8.26356 14.8444 8.35556 14.8711V12ZM9.24444 16C9.24444 16 8.90489 15.9427 8.35556 15.7942C6.04 15.1667 0 12.9111 0 6.44444C0 2.88533 2.88533 0 6.44444 0H9.55556C13.1147 0 16 2.88533 16 6.44444C16 10.0036 13.1147 12.8889 9.55556 12.8889H9.24444V16Z" fill="#707070"/>
<path fill-rule="evenodd" clip-rule="evenodd" d="M9.64024 2.88082C10.098 3.18482 10.4429 3.67771 10.4429 4.3386C10.4429 5.03993 10.1602 5.55549 9.70201 5.87104C9.52111 5.99352 9.32146 6.08569 9.1109 6.14393V6.82482C9.1109 7.00163 9.04067 7.1712 8.91564 7.29623C8.79062 7.42125 8.62105 7.49149 8.44424 7.49149C8.26743 7.49149 8.09786 7.42125 7.97283 7.29623C7.84781 7.1712 7.77757 7.00163 7.77757 6.82482V5.58171C7.77753 5.41257 7.84179 5.24973 7.95732 5.12619C8.07285 5.00266 8.23103 4.92765 8.39979 4.91638C8.64601 4.89993 8.83268 4.85104 8.94513 4.77326C8.99071 4.74307 9.02751 4.70137 9.05179 4.65238C9.07846 4.59904 9.10957 4.50393 9.10957 4.33815C9.10957 4.19904 9.05535 4.09282 8.90201 3.9906C8.72779 3.87504 8.44779 3.78971 8.11135 3.77904C7.7789 3.76838 7.45579 3.83326 7.21801 3.94838C6.97979 4.06393 6.89224 4.19371 6.86779 4.28927C6.84602 4.37407 6.80776 4.45376 6.75519 4.52377C6.70263 4.59379 6.63679 4.65277 6.56143 4.69734C6.48607 4.74192 6.40266 4.77121 6.31598 4.78355C6.2293 4.79589 6.14104 4.79104 6.05624 4.76927C5.97143 4.7475 5.89175 4.70923 5.82173 4.65667C5.75171 4.6041 5.69273 4.53826 5.64816 4.4629C5.60359 4.38754 5.57429 4.30414 5.56195 4.21746C5.54961 4.13078 5.55447 4.04251 5.57624 3.95771C5.72957 3.36171 6.17535 2.97238 6.63668 2.74882C7.0989 2.52438 7.64246 2.42971 8.15357 2.44615C8.66157 2.46215 9.20379 2.59015 9.64024 2.88082Z" fill="#707070"/>
<path d="M9.33308 9.33322C9.33308 9.56897 9.23942 9.79507 9.07273 9.96176C8.90603 10.1285 8.67993 10.2221 8.44419 10.2221C8.20844 10.2221 7.98235 10.1285 7.81565 9.96176C7.64895 9.79507 7.5553 9.56897 7.5553 9.33322C7.5553 9.09748 7.64895 8.87138 7.81565 8.70469C7.98235 8.53799 8.20844 8.44434 8.44419 8.44434C8.67993 8.44434 8.90603 8.53799 9.07273 8.70469C9.23942 8.87138 9.33308 9.09748 9.33308 9.33322Z" fill="#707070"/>
</svg>
