<svg
  version="1.1"
  xmlns="http://www.w3.org/2000/svg"
  xmlns:xlink="http://www.w3.org/1999/xlink"
  viewBox="0 0 172 172"
><g
    fill="none"
    fill-rule="none"
    stroke="none"
    stroke-width="1"
    stroke-linecap="butt"
    stroke-linejoin="none"
    stroke-miterlimit="none"
    stroke-dasharray=""
    stroke-dashoffset="0"
    font-family="none"
    font-weight="none"
    font-size="none"
    text-anchor="none"
    style="mix-blend-mode: normal"
  ><path
      d="M0,172v-172h172v172z"
      fill="none"
      fill-rule="nonzero"
      stroke-linejoin="miter"
      stroke-miterlimit="10"
    /><g
      fill="#000000"
      fill-rule="evenodd"
      stroke-linejoin="round"
      stroke-miterlimit="2"
    ><path
        d="M94.95833,43v-34.04167h-51.95833c-2.365,0 -4.69417,0.42283 -6.87283,1.23983l-0.22217,0.07883c-2.54417,0.98183 -4.8805,2.494 -6.84417,4.4505c-3.225,3.23217 -5.21733,7.46767 -5.66883,11.96833c-0.0645,0.65217 -0.10033,1.3115 -0.10033,1.97083c0,27.46267 0,87.204 0,114.66667c0,5.2245 2.07833,10.24117 5.76917,13.93917l1.8275,1.60533c3.44717,2.6875 7.70417,4.16383 12.11167,4.16383h86c10.88617,0 19.70833,-8.82217 19.70833,-19.70833v-80.625h-34.04167h-0.258l-0.25083,-0.00717l-0.25083,-0.00717l-0.29383,-0.01433l-0.25083,-0.01433l-0.24367,-0.01433l-0.24367,-0.0215l-0.24367,-0.02867l-0.24367,-0.0215l-0.24367,-0.02867l-0.24367,-0.03583l-0.2365,-0.03583l-0.12183,-0.01433c-8.99417,-1.43333 -15.953,-8.95117 -16.54067,-18.19617l-0.01433,-0.25083l-0.01433,-0.258l-0.00717,-0.25083l-0.00717,-0.25083zM123.625,80.625h-10.75c-6.923,0 -12.54167,5.6115 -12.54167,12.54167v14.33333c0,6.923 5.6115,12.54167 12.54167,12.54167h7.16667h0.07883c6.89433,-0.043 12.46283,-5.64017 12.46283,-12.54167v-7.16667c0,-2.9455 -2.37217,-5.33917 -5.30333,-5.375h-0.07167h-7.16667c-2.967,0 -5.375,2.408 -5.375,5.375c0,2.967 2.408,5.375 5.375,5.375h1.79167v1.79167c0,0.989 -0.80267,1.79167 -1.79167,1.79167h-7.16667c-0.989,0 -1.79167,-0.80267 -1.79167,-1.79167v-14.33333c0,-0.989 0.80267,-1.79167 1.79167,-1.79167h10.75h0.07167c2.93117,-0.03583 5.30333,-2.4295 5.30333,-5.375c0,-2.9455 -2.37217,-5.33917 -5.30333,-5.375zM73.41533,80.625c-0.61633,0.00717 -1.23983,0.11467 -1.84183,0.344c-2.13567,0.7955 -3.4615,2.8165 -3.49017,4.9665c-0.03583,-2.91683 -2.39367,-5.27467 -5.30333,-5.3105h-0.07167h-10.75c-3.32533,0 -6.5145,1.31867 -8.86517,3.6765c-2.35783,2.35067 -3.6765,5.53983 -3.6765,8.86517c0,3.32533 1.31867,6.5145 3.6765,8.86517c2.35067,2.35783 5.53983,3.6765 8.86517,3.6765h3.58333c0.473,0 0.93167,0.18633 1.2685,0.52317c0.33683,0.33683 0.52317,0.7955 0.52317,1.2685c0,0.473 -0.18633,0.93167 -0.52317,1.2685c-0.33683,0.33683 -0.7955,0.52317 -1.2685,0.52317h-10.75c-2.967,0 -5.375,2.408 -5.375,5.375c0,2.967 2.408,5.375 5.375,5.375h10.75c3.32533,0 6.5145,-1.31867 8.86517,-3.6765c2.35783,-2.35067 3.6765,-5.53983 3.6765,-8.86517c0,-3.32533 -1.31867,-6.5145 -3.6765,-8.86517c-2.35067,-2.35783 -5.53983,-3.6765 -8.86517,-3.6765h-3.58333c-0.473,0 -0.93167,-0.18633 -1.2685,-0.52317c-0.33683,-0.33683 -0.52317,-0.7955 -0.52317,-1.2685c0,-0.473 0.18633,-0.93167 0.52317,-1.2685c0.33683,-0.33683 0.7955,-0.52317 1.2685,-0.52317h10.75h0.07167c2.90967,-0.03583 5.2675,-2.39367 5.30333,-5.30333c0.00717,0.602 0.11467,1.21833 0.344,1.81317l10.75,28.66667c0.78833,2.09983 2.78783,3.49017 5.031,3.49017h0.05017c2.22167,-0.0215 4.19967,-1.40467 4.98083,-3.49017l10.75,-28.66667c1.04633,-2.7735 -0.3655,-5.87667 -3.14617,-6.91583c-0.602,-0.22933 -1.2255,-0.33683 -1.84183,-0.344h-0.0645c-2.1715,0.00717 -4.20683,1.34017 -5.0095,3.49017l-5.719,15.2435l-5.719,-15.2435c-0.7955,-2.1285 -2.80217,-3.45433 -4.945,-3.49017zM105.70833,12.13317v30.86683v0.22933l0.01433,0.22933l0.01433,0.22933l0.01433,0.22933l0.02867,0.22217l0.02867,0.22217l0.043,0.22217l0.03583,0.22217l0.05017,0.215l0.05017,0.215l0.05733,0.215l0.0645,0.215l0.07167,0.20783l0.07167,0.20783l0.07883,0.20067l0.07883,0.20783l0.086,0.1935l0.09317,0.20067l0.05017,0.10033l0.05017,0.09317l0.05017,0.09317l0.05017,0.10033l0.05017,0.09317l0.05733,0.09317l0.05017,0.09317l0.05733,0.09317l0.05733,0.09317l0.05733,0.09317c1.5695,2.451 4.30717,4.085 7.43183,4.128h0.11467h30.86683c-0.16483,-0.17917 -0.32967,-0.35117 -0.50167,-0.52317c-7.29567,-7.29567 -31.50467,-31.50467 -38.80033,-38.80033c-0.172,-0.172 -0.344,-0.33683 -0.52317,-0.50167z"
      /></g></g></svg>
