<svg width="15" height="17" viewBox="0 0 15 17" fill="none" xmlns="http://www.w3.org/2000/svg">
<path d="M14.9313 9.18861C14.9325 8.61355 14.7897 8.04735 14.516 7.54161C14.2423 7.03587 13.8464 6.60667 13.3643 6.29314C12.8822 5.97961 12.3293 5.79172 11.7561 5.74659C11.1828 5.70146 10.6073 5.80052 10.0821 6.03476C9.55694 6.26899 9.09873 6.63094 8.74926 7.08763C8.39978 7.54431 8.17016 8.08119 8.08132 8.64934C7.99249 9.2175 8.04726 9.79885 8.24065 10.3404C8.43404 10.882 8.75989 11.3665 9.18851 11.7499V16.08L11.4856 14.9929L13.7828 16.08V11.7499C14.1438 11.4279 14.4327 11.0333 14.6307 10.592C14.8286 10.1506 14.9311 9.67234 14.9313 9.18861ZM12.6342 14.2652L11.4856 13.7214L10.3371 14.2652V12.4333C11.0793 12.7014 11.892 12.7014 12.6342 12.4333V14.2652ZM11.4856 11.4857C11.0313 11.4857 10.5872 11.351 10.2094 11.0986C9.83167 10.8462 9.53724 10.4874 9.36337 10.0677C9.18951 9.64793 9.14402 9.18606 9.23265 8.74046C9.32129 8.29486 9.54007 7.88555 9.86133 7.5643C10.1826 7.24304 10.5919 7.02426 11.0375 6.93562C11.4831 6.84699 11.945 6.89248 12.3647 7.06634C12.7845 7.24021 13.1432 7.53463 13.3956 7.91239C13.648 8.29015 13.7828 8.73428 13.7828 9.18861C13.782 9.79761 13.5397 10.3814 13.1091 10.8121C12.6785 11.2427 12.0946 11.485 11.4856 11.4857ZM2.87143 6.89148H6.89139V8.04004H2.87143V6.89148ZM2.87143 3.4458H8.61423V4.59436H2.87143V3.4458Z" fill="#707070"/>
<path d="M1.14856 16.0799C0.844037 16.0795 0.552073 15.9584 0.336742 15.7431C0.121411 15.5278 0.000304068 15.2358 0 14.9313V1.14856C0.000304068 0.844037 0.121411 0.552073 0.336742 0.336742C0.552073 0.12141 0.844037 0.000304068 1.14856 0H10.337C10.6416 0.000304068 10.9335 0.12141 11.1489 0.336742C11.3642 0.552073 11.4853 0.844037 11.4856 1.14856V3.44568H10.337V1.14856H1.14856V14.9313H6.89137V16.0799H1.14856Z" fill="#707070"/>
</svg>
