<svg
  width="16"
  height="17"
  viewBox="0 0 16 17"
  fill="none"
  xmlns="http://www.w3.org/2000/svg"
>
<path
    d="M8.44051 0.883312L9.90766 5.71392V6.19239H10.4577H14.9716C15.4176 6.19239 15.6094 6.76327 15.239 7.0317C15.2387 7.03192 15.2384 7.03214 15.2381 7.03236L11.5479 9.66816L11.2246 9.89913L11.3423 10.2787L12.7928 14.9549L12.7931 14.9557C12.9268 15.3845 12.4272 15.7345 12.0703 15.461L12.069 15.46L8.32598 12.6097L7.99335 12.3564L7.6603 12.6091L3.9173 15.4493L3.91525 15.4509C3.55833 15.7243 3.05869 15.3744 3.19243 14.9455L3.19267 14.9447L4.64321 10.2685L4.76094 9.88899L4.43758 9.65802L0.745306 7.02068L0.74369 7.01953C0.382871 6.76376 0.56219 6.18224 1.01395 6.18224H5.52786H5.93482L6.05382 5.79307L7.55508 0.883563L7.5551 0.883571L7.55668 0.878224C7.68296 0.449762 8.30205 0.429726 8.44051 0.883312Z"
    stroke-width="1.1"
  />
</svg>
