<svg width="16" height="18" viewBox="0 0 16 18" fill="none" xmlns="http://www.w3.org/2000/svg">
<path d="M12.9509 11.3207C12.5183 11.3229 12.0917 11.4221 11.7026 11.6112C11.3135 11.8002 10.9718 12.0742 10.7027 12.413L6.47812 9.77185C6.63209 9.27493 6.63209 8.74305 6.47812 8.24613L10.7027 5.60503C11.1315 6.13598 11.7344 6.49802 12.4046 6.62703C13.0747 6.75604 13.7689 6.64369 14.3642 6.30988C14.9594 5.97607 15.4173 5.44234 15.6567 4.80325C15.8962 4.16416 15.9017 3.46095 15.6723 2.81819C15.4429 2.17544 14.9933 1.63462 14.4034 1.29155C13.8134 0.94848 13.1211 0.825295 12.449 0.943819C11.7769 1.06234 11.1684 1.41492 10.7314 1.93911C10.2943 2.46329 10.0569 3.12524 10.0612 3.80769C10.064 4.06613 10.1029 4.32291 10.1768 4.57055L5.95221 7.21165C5.57925 6.74214 5.06946 6.40028 4.49351 6.23346C3.91756 6.06664 3.30398 6.08312 2.73782 6.28063C2.17166 6.47813 1.68096 6.84687 1.33374 7.33573C0.986524 7.8246 0.799988 8.40937 0.799988 9.00899C0.799988 9.60861 0.986524 10.1934 1.33374 10.6822C1.68096 11.1711 2.17166 11.5399 2.73782 11.7374C3.30398 11.9349 3.91756 11.9513 4.49351 11.7845C5.06946 11.6177 5.57925 11.2758 5.95221 10.8063L10.1768 13.4474C10.1029 13.6951 10.064 13.9519 10.0612 14.2103C10.0612 14.7818 10.2307 15.3405 10.5482 15.8157C10.8657 16.2909 11.317 16.6612 11.845 16.8799C12.3731 17.0987 12.9541 17.1559 13.5146 17.0444C14.0751 16.9329 14.59 16.6577 14.9941 16.2536C15.3982 15.8494 15.6734 15.3346 15.7849 14.774C15.8964 14.2135 15.8392 13.6325 15.6205 13.1045C15.4018 12.5765 15.0314 12.1252 14.5562 11.8077C14.081 11.4902 13.5224 11.3207 12.9509 11.3207ZM12.9509 2.07392C13.2938 2.07392 13.629 2.17561 13.9141 2.36612C14.1992 2.55663 14.4214 2.8274 14.5526 3.14421C14.6839 3.46101 14.7182 3.80961 14.6513 4.14593C14.5844 4.48225 14.4193 4.79118 14.1768 5.03365C13.9343 5.27612 13.6254 5.44125 13.2891 5.50814C12.9528 5.57504 12.6042 5.54071 12.2874 5.40948C11.9706 5.27826 11.6998 5.05604 11.5093 4.77092C11.3188 4.4858 11.2171 4.1506 11.2171 3.80769C11.2171 3.34787 11.3997 2.90688 11.7249 2.58173C12.05 2.25659 12.491 2.07392 12.9509 2.07392ZM3.7041 10.7428C3.36119 10.7428 3.02598 10.6411 2.74087 10.4506C2.45575 10.2601 2.23353 9.98928 2.10231 9.67247C1.97108 9.35567 1.93675 9.00707 2.00364 8.67075C2.07054 8.33443 2.23567 8.0255 2.47814 7.78303C2.72061 7.54056 3.02954 7.37544 3.36586 7.30854C3.70217 7.24164 4.05078 7.27598 4.36758 7.4072C4.68438 7.53842 4.95516 7.76065 5.14567 8.04576C5.33618 8.33088 5.43786 8.66608 5.43786 9.00899C5.43786 9.46881 5.2552 9.90981 4.93005 10.235C4.60491 10.5601 4.16392 10.7428 3.7041 10.7428ZM12.9509 15.9441C12.6079 15.9441 12.2727 15.8424 11.9876 15.6519C11.7025 15.4614 11.4803 15.1906 11.3491 14.8738C11.2178 14.557 11.1835 14.2084 11.2504 13.8721C11.3173 13.5357 11.4824 13.2268 11.7249 12.9843C11.9674 12.7419 12.2763 12.5767 12.6126 12.5098C12.9489 12.4429 13.2975 12.4773 13.6143 12.6085C13.9311 12.7397 14.2019 12.9619 14.3924 13.2471C14.5829 13.5322 14.6846 13.8674 14.6846 14.2103C14.6846 14.6701 14.502 15.1111 14.1768 15.4362C13.8517 15.7614 13.4107 15.9441 12.9509 15.9441Z" fill="#707070"/>
</svg>
