<svg
  width="16"
  height="20"
  viewBox="0 0 16 20"
  xmlns="http://www.w3.org/2000/svg"
>
<path
    d="M4.5 12.375H11.5M4.5 8.875H6.25M4.5 15.875H8M6.25 2.75H2.75C2.28587 2.75 1.84075 2.93437 1.51256 3.26256C1.18437 3.59075 1 4.03587 1 4.5V17.625C1 18.0891 1.18437 18.5342 1.51256 18.8624C1.84075 19.1906 2.28587 19.375 2.75 19.375H13.25C13.7141 19.375 14.1592 19.1906 14.4874 18.8624C14.8156 18.5342 15 18.0891 15 17.625V4.5C15 4.03587 14.8156 3.59075 14.4874 3.26256C14.1592 2.93437 13.7141 2.75 13.25 2.75H10.1875M6.25 2.75V1M6.25 2.75V4.5"
    stroke="white"
    stroke-width="1.2"
    stroke-linecap="round"
    stroke-linejoin="round"
  />
</svg>
